Coordinates
version=1
nRows=17
nColumns=40
inDegrees=yes

Units are S.I. units (second, meters, Newtons, ...)
If the header above contains a line with 'inDegrees', this indicates whether rotational values are in degrees (yes) or radians (no).

endheader
time	pelvis_tilt	pelvis_list	pelvis_rotation	pelvis_tx	pelvis_ty	pelvis_tz	hip_flexion_r	hip_adduction_r	hip_rotation_r	knee_angle_r	knee_angle_r_beta	ankle_angle_r	subtalar_angle_r	mtp_angle_r	hip_flexion_l	hip_adduction_l	hip_rotation_l	knee_angle_l	knee_angle_l_beta	ankle_angle_l	subtalar_angle_l	mtp_angle_l	lumbar_extension	lumbar_bending	lumbar_rotation	arm_flex_r	arm_add_r	arm_rot_r	elbow_flex_r	pro_sup_r	wrist_flex_r	wrist_dev_r	arm_flex_l	arm_add_l	arm_rot_l	elbow_flex_l	pro_sup_l	wrist_flex_l	wrist_dev_l
      3.68000000	    -30.86176169	      0.69106446	     -1.84271744	     -0.40416403	      0.61671739	     -0.90734558	     92.12991176	    -12.55649796	     -2.67709627	     97.56860745	      1.70289345	     37.51901965	      0.00000000	      0.00000000	     91.21631458	    -19.66009896	     -2.04208899	     96.34465671	      1.68153148	     36.55811722	      0.00000000	      0.00000000	    -30.91132434	    -16.39837233	    -41.63850089	     32.41058636	    -26.43159966	     89.66969277	     82.64692659	      3.89411203	      0.00000000	      0.00000000	    -70.77105848	    -17.20903105	    -17.09219287	    116.45833067	     88.09316846	      0.00000000	      0.00000000
      3.68500000	    -30.55166547	      0.95438874	     -1.91607110	     -0.40371915	      0.61712115	     -0.90729568	     91.90634694	    -12.53855730	     -2.39957358	     97.67554667	      1.70475989	     37.72785603	      0.00000000	      0.00000000	     90.66780166	    -19.72042341	     -2.38466226	     96.31095686	      1.68094330	     36.77775762	      0.00000000	      0.00000000	    -31.42915835	    -16.67235302	    -41.97469455	     32.49642224	    -26.20059904	     89.67370299	     82.49562076	      4.94619314	      0.00000000	      0.00000000	    -70.90335270	    -16.68273518	    -17.48403640	    116.49476833	     88.07733919	      0.00000000	      0.00000000
      3.69000000	    -30.85732095	      0.70621814	     -1.88614011	     -0.40416017	      0.61646580	     -0.90722133	     92.18972366	    -12.48653215	     -2.62054169	     97.65659679	      1.70442915	     37.44910697	      0.00000000	      0.00000000	     91.23020531	    -19.68966844	     -2.00623709	     96.37920332	      1.68213443	     36.55722209	      0.00000000	      0.00000000	    -30.92057904	    -16.39838686	    -41.66298701	     32.43576824	    -26.39847894	     89.67110994	     82.73013494	      3.79389915	      0.00000000	      0.00000000	    -70.80707741	    -17.06673260	    -17.11946463	    116.43294699	     88.08022749	      0.00000000	      0.00000000
      3.69500000	    -30.65119202	      0.95772087	     -1.92510653	     -0.40388554	      0.61671830	     -0.90729435	     92.07928101	    -12.51180329	     -2.34939085	     97.71903039	      1.70551882	     37.43630624	      0.00000000	      0.00000000	     90.85275569	    -19.69608604	     -2.31743000	     96.38412284	      1.68222029	     36.56640756	      0.00000000	      0.00000000	    -31.18400079	    -16.63514048	    -41.80956740	     32.45551781	    -26.33847985	     89.67126096	     82.68586931	      4.10015258	      0.00000000	      0.00000000	    -70.86982914	    -17.04863783	    -17.20508541	    116.46709444	     88.12864306	      0.00000000	      0.00000000
      3.70000000	    -30.84656514	      0.72940241	     -1.88556791	     -0.40426287	      0.61626924	     -0.90719228	     92.22049485	    -12.46448605	     -2.55884006	     97.68627535	      1.70494714	     37.44211943	      0.00000000	      0.00000000	     91.23394334	    -19.68206420	     -2.02105145	     96.39392388	      1.68239135	     36.50983577	      0.00000000	      0.00000000	    -31.03005255	    -16.39828509	    -41.85861593	     32.51447663	    -26.29675791	     89.67439473	     82.66184145	      4.43079139	      0.00000000	      0.00000000	    -70.94407644	    -16.72791055	    -17.35446784	    116.51153608	     88.12800008	      0.00000000	      0.00000000
      3.70500000	    -30.84913316	      0.68519075	     -1.92482500	     -0.40420796	      0.61615882	     -0.90701641	     92.21719218	    -12.39202359	     -2.58655105	     97.70888467	      1.70534175	     37.44670616	      0.00000000	      0.00000000	     91.28201803	    -19.73944415	     -1.94654032	     96.45616111	      1.68347760	     36.49954549	      0.00000000	      0.00000000	    -30.93630665	    -16.36373741	    -41.71696733	     32.48323862	    -26.34314976	     89.67380368	     82.66851551	      4.25935725	      0.00000000	      0.00000000	    -70.88329656	    -16.89698738	    -17.26013026	    116.48837728	     88.14769121	      0.00000000	      0.00000000
      3.71000000	    -30.67358680	      0.93705032	     -1.99011424	     -0.40389263	      0.61640626	     -0.90703104	     92.11730950	    -12.41656205	     -2.37786552	     97.74697078	      1.70600647	     37.50974433	      0.00000000	      0.00000000	     90.92386743	    -19.78982858	     -2.26203590	     96.46751072	      1.68367568	     36.63217279	      0.00000000	      0.00000000	    -31.08567140	    -16.62840294	    -41.72065275	     32.44568169	    -26.32639291	     89.67227304	     82.65441615	      3.80763306	      0.00000000	      0.00000000	    -70.88063004	    -17.13439715	    -17.14162151	    116.50011875	     88.07547096	      0.00000000	      0.00000000
      3.71500000	    -30.65704401	      0.94887025	     -2.01432016	     -0.40388646	      0.61633360	     -0.90696188	     92.11785528	    -12.39376902	     -2.37324540	     97.76715061	      1.70635868	     37.51155581	      0.00000000	      0.00000000	     90.90609351	    -19.81061602	     -2.26595088	     96.47194385	      1.68375306	     36.64581251	      0.00000000	      0.00000000	    -31.08225403	    -16.63184003	    -41.69216266	     32.43822401	    -26.32989757	     89.67243616	     82.66866304	      3.79969555	      0.00000000	      0.00000000	    -70.86691477	    -17.17062484	    -17.14260464	    116.49105339	     88.06769037	      0.00000000	      0.00000000
      3.72000000	    -30.61261940	      0.97551377	     -2.01504330	     -0.40386196	      0.61630650	     -0.90695593	     92.09052180	    -12.39322870	     -2.33404956	     97.78744006	      1.70671280	     37.52116209	      0.00000000	      0.00000000	     90.85959395	    -19.80003577	     -2.27721114	     96.49936358	      1.68423162	     36.62491497	      0.00000000	      0.00000000	    -31.15861931	    -16.65307273	    -41.77026091	     32.46519503	    -26.30227795	     89.67294920	     82.56252401	      5.03588499	      0.00000000	      0.00000000	    -70.92496506	    -17.09464919	    -17.19787409	    116.53570943	     88.21827906	      0.00000000	      0.00000000
      3.72500000	    -30.65573642	      0.91500635	     -2.05832329	     -0.40385668	      0.61617333	     -0.90684050	     92.09823781	    -12.32187834	     -2.40534988	     97.77523221	      1.70649973	     37.73494579	      0.00000000	      0.00000000	     90.92780699	    -19.83497897	     -2.18066387	     96.51095974	      1.68443401	     36.82960062	      0.00000000	      0.00000000	    -30.98124499	    -16.60106123	    -41.54517390	     32.40658893	    -26.39122441	     89.67165447	     82.34697785	      7.46062458	      0.00000000	      0.00000000	    -70.76360989	    -17.34579092	    -17.04844916	    116.39373673	     88.22709324	      0.00000000	      0.00000000
      3.73000000	    -30.70245770	      0.91379891	     -2.05541713	     -0.40401500	      0.61594589	     -0.90681964	     92.19758015	    -12.31402472	     -2.38655387	     97.80693205	      1.70705300	     37.52355851	      0.00000000	      0.00000000	     91.03099419	    -19.84589129	     -2.16484691	     96.54482117	      1.68502501	     36.61407024	      0.00000000	      0.00000000	    -30.94042622	    -16.57489284	    -41.58664224	     32.43547835	    -26.37289534	     89.67395760	     82.68249948	      3.74021577	      0.00000000	      0.00000000	    -70.82934373	    -17.30439932	    -17.02149810	    116.45886721	     88.05772266	      0.00000000	      0.00000000
      3.73500000	    -30.68884776	      0.89123241	     -2.05070770	     -0.40404914	      0.61589692	     -0.90677562	     92.18555062	    -12.29682688	     -2.39026597	     97.82135926	      1.70730480	     37.51905382	      0.00000000	      0.00000000	     91.03704910	    -19.82937436	     -2.11427675	     96.54295052	      1.68499236	     36.63305412	      0.00000000	      0.00000000	    -30.96232005	    -16.54763480	    -41.59885901	     32.45535255	    -26.36613654	     89.67397067	     82.69609744	      4.10190480	      0.00000000	      0.00000000	    -70.86149275	    -17.30688804	    -17.04867118	    116.44566183	     88.12205525	      0.00000000	      0.00000000
      3.74000000	    -30.78908143	      0.95307524	     -2.12077911	     -0.40413079	      0.61562575	     -0.90672522	     92.36978925	    -12.24164507	     -2.33071748	     97.86469023	      1.70806107	     37.39043044	      0.00000000	      0.00000000	     91.14228055	    -19.88132428	     -2.14336951	     96.57900064	      1.68562155	     36.50615103	      0.00000000	      0.00000000	    -30.80975393	    -16.61537430	    -41.53050725	     32.44102060	    -26.41583482	     89.67906255	     82.73627257	      4.49245026	      0.00000000	      0.00000000	    -70.73522133	    -17.22268831	    -16.91997131	    116.50636186	     88.12767099	      0.00000000	      0.00000000
      3.74500000	    -30.70088368	      0.91715576	     -2.09060038	     -0.40404032	      0.61570058	     -0.90674192	     92.22873757	    -12.27170940	     -2.37620974	     97.84294748	      1.70768158	     37.53915790	      0.00000000	      0.00000000	     91.05961368	    -19.84614419	     -2.11325332	     96.58784873	      1.68577598	     36.65021993	      0.00000000	      0.00000000	    -30.79881940	    -16.53143895	    -41.40646097	     32.40360828	    -26.47014044	     89.67322546	     82.77446486	      3.76330997	      0.00000000	      0.00000000	    -70.69905126	    -17.62918363	    -16.83066902	    116.39973724	     88.06556781	      0.00000000	      0.00000000
      3.75000000	    -30.67045541	      0.92202151	     -2.13171529	     -0.40397641	      0.61570057	     -0.90659068	     92.16761203	    -12.22454586	     -2.40033523	     97.82009500	      1.70728273	     37.87363668	      0.00000000	      0.00000000	     91.01187481	    -19.87687329	     -2.07604363	     96.59014986	      1.68581614	     36.88731790	      0.00000000	      0.00000000	    -30.88280190	    -16.59317457	    -41.47819839	     32.39535446	    -26.40536912	     89.67668082	     82.47103695	      5.77652918	      0.00000000	      0.00000000	    -70.74870012	    -17.45831407	    -16.92603631	    116.40568875	     87.94473898	      0.00000000	      0.00000000
      3.75500000	    -30.63685757	      0.99097829	     -2.11413081	     -0.40396472	      0.61569116	     -0.90663575	     92.20088610	    -12.26000612	     -2.30673253	     97.87698722	      1.70827569	     37.53204949	      0.00000000	      0.00000000	     90.96012916	    -19.86617790	     -2.19200732	     96.61134091	      1.68618599	     36.68565426	      0.00000000	      0.00000000	    -30.93088341	    -16.63256050	    -41.54190352	     32.42416338	    -26.39091610	     89.67455881	     82.72930899	      3.82512117	      0.00000000	      0.00000000	    -70.78788886	    -17.45249921	    -16.94185008	    116.43201771	     88.04404060	      0.00000000	      0.00000000
      3.76000000	    -30.52429249	      1.03261305	     -2.11107980	     -0.40389158	      0.61570893	     -0.90657096	     92.12307495	    -12.29389771	     -2.28887065	     97.93922101	      1.70936187	     37.49422871	      0.00000000	      0.00000000	     90.81919166	    -19.87207881	     -2.24463482	     96.63609674	      1.68661806	     36.67128990	      0.00000000	      0.00000000	    -31.22236544	    -16.68452005	    -41.83753975	     32.48597162	    -26.22100581	     89.67957293	     82.44057502	      5.93601339	      0.00000000	      0.00000000	    -71.02124384	    -16.86912074	    -17.46541627	    116.52639678	     88.13465128	      0.00000000	      0.00000000
